{
  "accessors": [
    {
      "bufferView": 2,
      "componentType": 5126,
      "count": 30588,
      "max": [
        2.1229710578918457,
        1.6931840181350708,
        1.2871060371398926
      ],
      "min": [
        -0.5060303807258606,
        -1.2008622884750366,
        -0.00027203842182643712
      ],
      "type": "VEC3"
    },
    {
      "bufferView": 2,
      "byteOffset": 367056,
      "componentType": 5126,
      "count": 30588,
      "max": [
        0.99998259544372559,
        0.99993199110031128,
        0.99994939565658569
      ],
      "min": [
        -0.99991559982299805,
        -0.99992036819458008,
        -1
      ],
      "type": "VEC3"
    },
    {
      "bufferView": 3,
      "componentType": 5126,
      "count": 30588,
      "max": [
        0.99987202882766724,
        0.9998023509979248,
        1,
        1
      ],
      "min": [
        -0.99943149089813232,
        -0.9999656081199646,
        -0.99999862909317017,
        -1
      ],
      "type": "VEC4"
    },
    {
      "bufferView": 1,
      "componentType": 5126,
      "count": 30588,
      "max": [
        0.99580001831054688,
        0.99099999666213989
      ],
      "min": [
        0.00419999985024333,
        0.00419999985024333
      ],
      "type": "VEC2"
    },
    {
      "bufferView": 0,
      "componentType": 5125,
      "count": 118092,
      "max": [
        30587
      ],
      "min": [
        0
      ],
      "type": "SCALAR"
    }
  ],
  "asset": {
    "extras": {
      "author": "Ramhat (https://sketchfab.com/Ramhat)",
      "license": "CC-BY-NC-4.0 (http://creativecommons.org/licenses/by-nc/4.0/)",
      "source": "https://sketchfab.com/models/9ee71feff47b42eea1291ea75d129519",
      "title": "Leather Shoes - Military Style"
    },
    "generator": "Sketchfab-3.19.5",
    "version": "2.0"
  },
  "bufferViews": [
    {
      "buffer": 0,
      "byteLength": 472368,
      "byteOffset": 0,
      "name": "floatBufferViews",
      "target": 34963
    },
    {
      "buffer": 0,
      "byteLength": 244704,
      "byteOffset": 472368,
      "byteStride": 8,
      "name": "floatBufferViews",
      "target": 34962
    },
    {
      "buffer": 0,
      "byteLength": 734112,
      "byteOffset": 717072,
      "byteStride": 12,
      "name": "floatBufferViews",
      "target": 34962
    },
    {
      "buffer": 0,
      "byteLength": 489408,
      "byteOffset": 1451184,
      "byteStride": 16,
      "name": "floatBufferViews",
      "target": 34962
    }
  ],
  "buffers": [
    {
      "byteLength": 1940592,
      "uri": "scene.bin"
    }
  ],
  "images": [
    {
      "uri": "textures/Leather_ShoesNone_baseColor.png"
    },
    {
      "uri": "textures/Leather_ShoesNone_normal.png"
    },
    {
      "uri": "textures/Leather_ShoesNone_metallicRoughness.png"
    }
  ],
  "materials": [
    {
      "doubleSided": true,
      "name": "Leather_ShoesNone",
      "normalTexture": {
        "index": 1,
        "scale": 1,
        "texCoord": 0
      },
      "pbrMetallicRoughness": {
        "baseColorFactor": [
          1,
          1,
          1,
          1
        ],
        "baseColorTexture": {
          "index": 0,
          "texCoord": 0
        },
        "metallicFactor": 1,
        "metallicRoughnessTexture": {
          "index": 2,
          "texCoord": 0
        },
        "roughnessFactor": 1
      }
    }
  ],
  "meshes": [
    {
      "name": "Object001__Leather_ShoesNone_0",
      "primitives": [
        {
          "attributes": {
            "NORMAL": 1,
            "POSITION": 0,
            "TANGENT": 2,
            "TEXCOORD_0": 3
          },
          "indices": 4,
          "material": 0,
          "mode": 4
        }
      ]
    }
  ],
  "nodes": [
    {
      "children": [
        1
      ],
      "name": "RootNode (gltf orientation matrix)",
      "rotation": [
        -0.70710678118654746,
        -0,
        -0,
        0.70710678118654757
      ]
    },
    {
      "children": [
        2
      ],
      "name": "RootNode (model correction matrix)"
    },
    {
      "children": [
        3
      ],
      "matrix": [
        1,
        0,
        0,
        0,
        0,
        0,
        1,
        0,
        0,
        -1,
        0,
        0,
        0,
        0,
        0,
        1
      ],
      "name": "668e4962026c4a1db1f1b764cac0e733.fbx"
    },
    {
      "children": [
        4
      ],
      "name": "RootNode"
    },
    {
      "children": [
        5
      ],
      "matrix": [
        1,
        0,
        0,
        0,
        0,
        2.2204460492503131e-16,
        -1,
        0,
        0,
        1,
        2.2204460492503131e-16,
        0,
        -1.8475546836853027,
        3.8396258617012791e-08,
        -1.4851462841033936,
        1
      ],
      "name": "Object001"
    },
    {
      "mesh": 0,
      "name": "Object001__Leather_ShoesNone_0"
    }
  ],
  "samplers": [
    {
      "magFilter": 9729,
      "minFilter": 9987,
      "wrapS": 10497,
      "wrapT": 10497
    }
  ],
  "scene": 0,
  "scenes": [
    {
      "name": "OSG_Scene",
      "nodes": [
        0
      ]
    }
  ],
  "textures": [
    {
      "sampler": 0,
      "source": 0
    },
    {
      "sampler": 0,
      "source": 1
    },
    {
      "sampler": 0,
      "source": 2
    }
  ]
}

